<?xml version="1.0" encoding="UTF-8"?>
<svg width="192px" height="192px" viewBox="0 0 192 192" version="1.1" xmlns="http://www.w3.org/2000/svg" xmlns:xlink="http://www.w3.org/1999/xlink">
    <!-- Generator: Sketch 42 (36781) - http://www.bohemiancoding.com/sketch -->
    <title>人名</title>
    <desc>Created with Sketch.</desc>
    <defs></defs>
    <g id="Page-1" stroke="none" stroke-width="1" fill="none" fill-rule="evenodd" opacity="0.3">
        <g id="人名" fill="#000000">
            <path d="M171,186.984127 L171,160.079365 C171,126.785714 149.174603,98.4920635 119.134921,88.7301587 C133.579365,80.5952381 143.380952,65.1190476 143.380952,47.3809524 C143.380952,21.2698413 122.111111,0 96,0 C69.8888889,0 48.6190476,21.2698413 48.6190476,47.3809524 C48.6190476,65.1190476 58.4206349,80.5952381 72.8650794,88.7301587 C42.7857143,98.4920635 21,126.785714 21,160.079365 L21,186.984127 C21,189.68254 23.1825397,191.865079 25.8809524,191.865079 L166.198413,191.865079 C168.81746,191.825397 171,189.68254 171,186.984127 L171,186.984127 Z M58.3015873,47.3809524 C58.3015873,26.6269841 75.2063492,9.72222222 95.9603175,9.72222222 C116.714286,9.72222222 133.619048,26.6269841 133.619048,47.3809524 C133.619048,68.1349206 116.714286,85.0396825 95.9603175,85.0396825 C75.2063492,85.0396825 58.3015873,68.1349206 58.3015873,47.3809524 L58.3015873,47.3809524 Z M161.277778,182.103175 L30.6428571,182.103175 L30.6428571,160.039683 C30.6428571,124.047619 59.9285714,94.7222222 95.9603175,94.7222222 C131.992063,94.7222222 161.277778,124.007937 161.277778,160.039683 L161.277778,182.103175 L161.277778,182.103175 Z" id="user-icn"></path>
        </g>
    </g>
</svg>