<?xml version="1.0" encoding="UTF-8"?>
<svg width="192px" height="192px" viewBox="0 0 192 192" version="1.1" xmlns="http://www.w3.org/2000/svg" xmlns:xlink="http://www.w3.org/1999/xlink">
    <!-- Generator: Sketch 42 (36781) - http://www.bohemiancoding.com/sketch -->
    <title>卡名</title>
    <desc>Created with Sketch.</desc>
    <defs></defs>
    <g id="Page-1" stroke="none" stroke-width="1" fill="none" fill-rule="evenodd" opacity="0.3">
        <g id="卡名" fill="#000000">
            <path d="M150.907355,151.529419 L41.0957706,151.529419 C30.0142405,151.529419 21,142.509371 21,131.433648 L21,61.0957706 C21,50.0142405 30.0142405,41 41.0957706,41 L150.904229,41 C161.979952,41 170.999999,50.0142405 170.999999,61.0957706 L170.999999,131.433648 C171.003126,142.512051 161.985759,151.529419 150.907355,151.529419 L150.907355,151.529419 Z M41.0957706,46.7417764 C33.1781585,46.7417764 26.7417764,53.1781585 26.7417764,61.0957706 L26.7417764,131.433648 C26.7417764,139.34858 33.1781585,145.787642 41.0957706,145.787642 L150.904229,145.787642 C158.819161,145.787642 165.258223,139.34858 165.258223,131.433648 L165.258223,61.0957706 C165.258223,53.1781585 158.819161,46.7417764 150.904229,46.7417764 C150.904229,46.7417764 41.0957706,46.7417764 41.0957706,46.7417764 L41.0957706,46.7417764 Z M124.518591,57.8804831 C131.681294,57.8804831 137.488734,63.685243 137.488734,70.8506261 C137.488734,78.0160092 131.683974,83.823896 124.518591,83.823896 C117.353208,83.823896 111.548448,78.0164559 111.548448,70.8506261 C111.548448,63.6847963 117.355888,57.8804831 124.518591,57.8804831 L124.518591,57.8804831 Z M142.602015,57.8804831 C149.764718,57.8804831 155.575285,63.685243 155.575285,70.8506261 C155.575285,78.0160092 149.767845,83.823896 142.602015,83.823896 C135.436632,83.823896 129.631872,78.0164559 129.631872,70.8506261 C129.631872,63.6847963 135.439312,57.8804831 142.602015,57.8804831 L142.602015,57.8804831 Z M36.4305215,118.038254 L60.3414867,118.038254 L60.3414867,126.650919 L36.4305215,126.650919 L36.4305215,118.038254 L36.4305215,118.038254 Z M68.173334,118.038254 L92.0874261,118.038254 L92.0874261,126.650919 L68.173334,126.650919 L68.173334,118.038254 L68.173334,118.038254 Z M99.9098929,118.038254 L123.829345,118.038254 L123.829345,126.650919 L99.9098929,126.650919 L99.9098929,118.038254 L99.9098929,118.038254 Z M131.652705,118.038254 L155.572158,118.038254 L155.572158,126.650919 L131.652705,126.650919 L131.652705,118.038254 L131.652705,118.038254 Z M36.4305215,57.8831632 L81.6317112,57.8831632 L81.6317112,66.4958278 L36.4305215,66.4958278 L36.4305215,57.8831632 L36.4305215,57.8831632 Z M36.4305215,74.9731447 L60.3472937,74.9731447 L60.3472937,83.5858093 L36.4305215,83.5858093 L36.4305215,74.9731447 L36.4305215,74.9731447 Z" id="card-icn"></path>
        </g>
    </g>
</svg>