<?xml version="1.0" encoding="UTF-8"?>
<svg width="192px" height="192px" viewBox="0 0 192 192" version="1.1" xmlns="http://www.w3.org/2000/svg" xmlns:xlink="http://www.w3.org/1999/xlink">
    <!-- Generator: Sketch 42 (36781) - http://www.bohemiancoding.com/sketch -->
    <title>卡号</title>
    <desc>Created with Sketch.</desc>
    <defs></defs>
    <g id="Page-1" stroke="none" stroke-width="1" fill="none" fill-rule="evenodd" opacity="0.3">
        <g id="卡号" fill="#000000">
            <path d="M158.827843,45 L33.1721571,45 C26.44718,45 21,50.44718 21,57.1721571 L21,70.6052014 L21,87.3167976 L21,135.433677 C21,142.158654 26.44718,147.605834 33.1721571,147.605834 L158.827843,147.605834 C165.55282,147.605834 171,142.158654 171,135.433677 L171,87.2998878 L171,70.5882915 L171,57.1552472 C170.98309,50.44718 165.53591,45 158.827843,45 L158.827843,45 Z M33.1721571,51.7080672 L158.827843,51.7080672 C161.736339,51.7080672 164.275023,54.0617234 164.275023,57.1552472 L164.275023,67.3266494 L27.7249771,67.3266494 L27.7249771,57.1552472 C27.7249771,54.2636614 30.0955431,51.7080672 33.1721571,51.7080672 L33.1721571,51.7080672 Z M164.275023,83.8532175 L27.7249771,83.8532175 L27.7249771,73.8665984 L164.275023,73.8665984 L164.275023,83.8532175 L164.275023,83.8532175 L164.275023,83.8532175 Z M158.827843,140.863947 L33.1721571,140.863947 C30.2636614,140.863947 27.7249771,138.510291 27.7249771,135.416767 L27.7249771,90.5781946 L164.275023,90.5781946 L164.275023,135.248648 C164.275023,138.325262 161.904457,140.863947 158.827843,140.863947 L158.827843,140.863947 Z M148.656196,108.550678 C148.656196,110.366405 147.21028,111.81232 145.394554,111.81232 L110.525936,111.81232 C108.710209,111.81232 107.264294,110.366405 107.264294,108.550678 C107.264294,106.734951 108.710209,105.289036 110.525936,105.289036 L145.20977,105.289036 C147.025497,105.104253 148.656196,106.549923 148.656196,108.550678 L148.656196,108.550678 Z M148.656196,126.338133 C148.656196,128.15386 147.21028,129.599776 145.394554,129.599776 L125.42156,129.599776 C123.605834,129.599776 122.159918,128.15386 122.159918,126.338133 C122.159918,124.522407 123.605834,123.076491 125.42156,123.076491 L145.394554,123.076491 C147.025497,123.076491 148.656196,124.522407 148.656196,126.338133 L148.656196,126.338133 Z" id="card-num-icn"></path>
        </g>
    </g>
</svg>