<?xml version="1.0" encoding="UTF-8"?>
<svg width="192px" height="192px" viewBox="0 0 192 192" version="1.1" xmlns="http://www.w3.org/2000/svg" xmlns:xlink="http://www.w3.org/1999/xlink">
    <!-- Generator: Sketch 42 (36781) - http://www.bohemiancoding.com/sketch -->
    <title>发现</title>
    <desc>Created with Sketch.</desc>
    <defs></defs>
    <g id="Page-1" stroke="none" stroke-width="1" fill="none" fill-rule="evenodd">
        <g id="发现" fill="#CCCCCC">
            <path d="M105.68473,86.3204656 C106.907549,87.5269808 107.592328,89.2063195 107.592328,90.934571 C107.592328,92.6465182 106.907549,94.3258569 105.68473,95.5486764 C104.478215,96.7551915 102.798876,97.4562747 101.086929,97.4562747 C99.3586774,97.4562747 97.6793387,96.7551915 96.4728235,95.5486764 C95.2500041,94.3258569 94.5652252,92.6465182 94.5652252,90.934571 C94.5652252,89.2063195 95.2500041,87.5269808 96.4728235,86.3204656 C97.6793387,85.0976462 99.3586774,84.4128673 101.086929,84.4128673 C102.798876,84.4128673 104.478215,85.0976462 105.68473,86.3204656 M106.325487,109.850773 C102.66192,112.617605 98.1423797,113.786621 93.6065347,113.147494 C89.056016,112.503476 85.028864,110.116532 82.2636616,106.425248 C76.55391,98.7964848 78.0832495,87.9264352 85.6728822,82.1905968 C89.3397101,79.423764 93.8625116,78.2514878 98.399987,78.895506 C102.948875,79.5411547 106.976027,81.9264678 109.736338,85.6144912 C115.44609,93.246515 113.91675,104.118195 106.325487,109.850773 M99.7728056,69.210776 C92.6331705,68.1982815 85.5359264,70.037402 79.7756317,74.3841175 C79.7756317,74.3841175 79.7756317,74.3857479 79.7740012,74.3857479 C67.9012397,83.3596122 65.5045136,100.360063 74.4327259,112.288259 C78.7680284,118.077902 85.0908202,121.82299 92.236977,122.833854 C93.5136005,123.013201 94.790224,123.102874 96.0570649,123.102874 C101.867903,123.102874 107.497764,121.224624 112.221107,117.655621 C124.09713,108.688279 126.497117,91.6861974 117.567274,79.75311 C113.235232,73.9667284 106.915702,70.2216401 99.7728056,69.210776 M96,126.999592 C64.5115842,126.999592 43.0731137,104.894278 35.7313058,96.0084565 C43.0388748,87.1177439 64.3713675,65.0434074 96,65.0434074 C127.481894,65.0434074 148.915473,87.137309 156.258912,96.0214999 C148.907321,104.913843 127.473742,126.999592 96,126.999592 M169.895794,92.3905414 C168.790365,90.7405503 142.287792,52 96,52 C49.7122081,52 23.2096347,90.7405503 22.104206,92.3905414 C20.6319313,94.5867251 20.6319313,97.4562747 22.104206,99.6524584 C23.2096347,101.302449 49.7122081,140.043 96,140.043 C142.287792,140.043 168.790365,101.302449 169.895794,99.6524584 C171.368069,97.4562747 171.368069,94.5867251 169.895794,92.3905414" id="preview"></path>
        </g>
    </g>
</svg>