<?xml version="1.0" encoding="UTF-8"?>
<svg width="192px" height="192px" viewBox="0 0 192 192" version="1.1" xmlns="http://www.w3.org/2000/svg" xmlns:xlink="http://www.w3.org/1999/xlink">
    <!-- Generator: Sketch 42 (36781) - http://www.bohemiancoding.com/sketch -->
    <title>定制</title>
    <desc>Created with Sketch.</desc>
    <defs></defs>
    <g id="Page-1" stroke="none" stroke-width="1" fill="none" fill-rule="evenodd">
        <g id="定制" fill="#CCCCCC">
            <path d="M156.524473,156.444456 L156.524473,171 L147.914049,171 L147.914049,156.444456 L133.401354,156.444456 L133.401354,147.839116 L147.914049,147.839116 L147.914049,133.618062 L156.524473,133.618062 L156.524473,147.839116 L171,147.839116 L171,156.444456 L156.524473,156.444456 Z M33.4970725,21 L45.994145,21 C52.8592034,21 58.4912174,26.6286887 58.4912174,33.4896939 L58.4912174,45.9793878 C58.4912174,52.840393 52.8592034,58.4690817 45.994145,58.4690817 L33.4970725,58.4690817 C26.632014,58.4690817 21,52.840393 21,45.9793878 L21,33.4896939 C21,26.6286887 26.632014,21 33.4970725,21 Z M89.7338986,21 L102.230971,21 C109.09603,21 114.728044,26.6286887 114.728044,33.4896939 L114.728044,45.9793878 C114.728044,52.840393 109.09603,58.4690817 102.230971,58.4690817 L89.7338986,58.4690817 C82.8688402,58.4690817 77.2368262,52.840393 77.2368262,45.9793878 L77.2368262,33.4896939 C77.2368262,26.6286887 82.8688402,21 89.7338986,21 Z M145.970725,21 L158.467797,21 C165.332856,21 170.96487,26.6286887 170.96487,33.4896939 L170.96487,45.9793878 C170.96487,52.840393 165.332856,58.4690817 158.467797,58.4690817 L145.970725,58.4690817 C139.105666,58.4690817 133.473652,52.840393 133.473652,45.9793878 L133.473652,33.4896939 C133.473652,26.6286887 139.105666,21 145.970725,21 Z M33.4970725,77.2036225 L45.994145,77.2036225 C52.8592034,77.2036225 58.4912174,82.8323112 58.4912174,89.6933164 L58.4912174,102.18301 C58.4912174,109.044015 52.8592034,114.672704 45.994145,114.672704 L33.4970725,114.672704 C26.632014,114.672704 21,109.044015 21,102.18301 L21,89.6933164 C21,82.8323112 26.632014,77.2036225 33.4970725,77.2036225 Z M89.7338986,77.2036225 L102.230971,77.2036225 C109.09603,77.2036225 114.728044,82.8323112 114.728044,89.6933164 L114.728044,102.18301 C114.728044,109.044015 109.09603,114.672704 102.230971,114.672704 L89.7338986,114.672704 C82.8688402,114.672704 77.2368262,109.044015 77.2368262,102.18301 L77.2368262,89.6933164 C77.2368262,82.8323112 82.8688402,77.2036225 89.7338986,77.2036225 Z M145.970725,77.2036225 L158.467797,77.2036225 C165.332856,77.2036225 170.96487,82.8323112 170.96487,89.6933164 L170.96487,102.18301 C170.96487,109.044015 165.332856,114.672704 158.467797,114.672704 L145.970725,114.672704 C139.105666,114.672704 133.473652,109.044015 133.473652,102.18301 L133.473652,89.6933164 C133.473652,82.8323112 139.105666,77.2036225 145.970725,77.2036225 Z M33.4970725,133.407245 L45.994145,133.407245 C52.8592034,133.407245 58.4912174,139.035934 58.4912174,145.896939 L58.4912174,158.386633 C58.4912174,165.247638 52.8592034,170.876327 45.994145,170.876327 L33.4970725,170.876327 C26.632014,170.876327 21,165.247638 21,158.386633 L21,145.896939 C21,139.035934 26.632014,133.407245 33.4970725,133.407245 Z M89.7338986,133.407245 L102.230971,133.407245 C109.09603,133.407245 114.728044,139.035934 114.728044,145.896939 L114.728044,158.386633 C114.728044,165.247638 109.09603,170.876327 102.230971,170.876327 L89.7338986,170.876327 C82.8688402,170.876327 77.2368262,165.247638 77.2368262,158.386633 L77.2368262,145.896939 C77.2368262,139.035934 82.8688402,133.407245 89.7338986,133.407245 Z"></path>
        </g>
    </g>
</svg>