<?xml version="1.0" encoding="UTF-8"?>
<svg width="192px" height="192px" viewBox="0 0 192 192" version="1.1" xmlns="http://www.w3.org/2000/svg" xmlns:xlink="http://www.w3.org/1999/xlink">
    <!-- Generator: Sketch 42 (36781) - http://www.bohemiancoding.com/sketch -->
    <title>我的</title>
    <desc>Created with Sketch.</desc>
    <defs></defs>
    <g id="Page-1" stroke="none" stroke-width="1" fill="none" fill-rule="evenodd">
        <g id="我的" stroke="#CCCCCC" stroke-width="0.5" fill="#CCCCCC">
            <path d="M95.7536946,105.040984 C117.921182,105.040984 135.901478,87.0901639 135.901478,64.9590164 C135.901478,42.8278689 117.921182,25 95.7536946,25 C73.5862069,25 55.6059113,42.9508197 55.6059113,64.9590164 C55.6059113,86.9672131 73.5862069,105.040984 95.7536946,105.040984 L95.7536946,105.040984 Z M95.7536946,35.4508197 C112.009852,35.4508197 125.310345,48.7295082 125.310345,64.9590164 C125.310345,81.1885246 112.009852,94.4672131 95.7536946,94.4672131 C79.4975369,94.4672131 66.1970443,81.1885246 66.1970443,64.9590164 C66.1970443,48.7295082 79.4975369,35.4508197 95.7536946,35.4508197 Z M26.2955665,167.622951 L26.2955665,167.622951 C23.3399015,167.622951 21,165.286885 21,162.336066 C21,134.54918 43.6600985,112.04918 71.3694581,112.04918 L120.630542,112.04918 C148.463054,112.04918 171,134.672131 171,162.336066 C171,165.286885 168.660099,167.622951 165.704433,167.622951 L26.2955665,167.622951 Z M71.3694581,122.622951 C51.1724138,122.622951 34.546798,137.745902 31.9605911,157.04918 L160.039409,157.04918 C157.453202,137.622951 140.827586,122.622951 120.630542,122.622951 L71.3694581,122.622951 Z" id="profile"></path>
        </g>
    </g>
</svg>