<?xml version="1.0" encoding="UTF-8"?>
<svg width="192px" height="192px" viewBox="0 0 192 192" version="1.1" xmlns="http://www.w3.org/2000/svg" xmlns:xlink="http://www.w3.org/1999/xlink">
    <!-- Generator: Sketch 42 (36781) - http://www.bohemiancoding.com/sketch -->
    <title>拍照</title>
    <desc>Created with Sketch.</desc>
    <defs></defs>
    <g id="Page-1" stroke="none" stroke-width="1" fill="none" fill-rule="evenodd">
        <g id="拍照" fill="#999999">
            <path d="M75.8076923,35 C71.7230769,35 69.0153846,36.6538462 67.6923077,38.9692308 L60.3,52.3076923 L49.4846154,52.3076923 C32.5384615,52.3076923 21,64.1769231 21,81.1538462 L21,128.030769 C21,143.561538 33.5923077,156.153846 49.1230769,156.153846 L142.876923,156.153846 C158.407692,156.153846 171,143.561538 171,128.030769 L171,80.4307692 C171,64.9 158.407692,52.3076923 142.876923,52.3076923 L131.7,52.3076923 L124.307692,38.9692308 C123.015385,36.6538462 120.130769,35 116.192308,35 L75.8076923,35 L75.8076923,35 Z M44.0769231,63.1230769 C47.7153846,63.1230769 50.5692308,65.9769231 50.5692308,69.6153846 C50.5692308,73.2538462 47.7153846,76.1076923 44.0769231,76.1076923 C40.4384615,76.1076923 37.5846154,73.2538462 37.5846154,69.6153846 C37.5846154,65.9769231 40.4384615,63.1230769 44.0769231,63.1230769 L44.0769231,63.1230769 Z M96,63.4846154 C118.507692,63.4846154 136.746154,81.7230769 136.746154,104.230769 C136.746154,126.738462 118.507692,144.976923 96,144.976923 C73.4923077,144.976923 55.2538462,126.738462 55.2538462,104.230769 C55.2538462,81.7230769 73.4923077,63.4846154 96,63.4846154 L96,63.4846154 Z M96,76.4692308 C80.6769231,76.4692308 68.2384615,88.9076923 68.2384615,104.230769 C68.2384615,119.553846 80.6769231,131.992308 96,131.992308 C111.323077,131.992308 123.761538,119.553846 123.761538,104.230769 C123.761538,88.9076923 111.323077,76.4692308 96,76.4692308 L96,76.4692308 Z" id="Fill-2-Copy"></path>
        </g>
    </g>
</svg>