<?xml version="1.0" encoding="UTF-8"?>
<svg width="192px" height="192px" viewBox="0 0 192 192" version="1.1" xmlns="http://www.w3.org/2000/svg" xmlns:xlink="http://www.w3.org/1999/xlink">
    <!-- Generator: Sketch 42 (36781) - http://www.bohemiancoding.com/sketch -->
    <title>更多</title>
    <desc>Created with Sketch.</desc>
    <defs></defs>
    <g id="Page-1" stroke="none" stroke-width="1" fill="none" fill-rule="evenodd">
        <g id="更多">
            <g id="icon-:-blog-:-arrow-copy" transform="translate(21.000000, 21.000000)">
                <circle id="Oval-125" fill="#66ACE1" cx="75" cy="75" r="75"></circle>
                <path d="M80.7692308,109.615385 C79.0384615,109.615385 77.8846154,109.038462 76.7307692,107.884615 C74.4230769,105.576923 74.4230769,102.115385 76.7307692,99.8076923 L105.576923,70.9615385 C107.884615,68.6538462 111.346154,68.6538462 113.653846,70.9615385 C115.961538,73.2692308 115.961538,76.7307692 113.653846,79.0384615 L84.8076923,107.884615 C83.6538462,109.038462 82.5,109.615385 80.7692308,109.615385 L80.7692308,109.615385 Z" id="Shape" fill="#F7F7F7"></path>
                <path d="M109.615385,80.7692308 C107.884615,80.7692308 106.730769,80.1923077 105.576923,79.0384615 L76.7307692,50.1923077 C74.4230769,47.8846154 74.4230769,44.4230769 76.7307692,42.1153846 C79.0384615,39.8076923 82.5,39.8076923 84.8076923,42.1153846 L113.653846,70.9615385 C115.961538,73.2692308 115.961538,76.7307692 113.653846,79.0384615 C112.5,80.1923077 111.346154,80.7692308 109.615385,80.7692308 L109.615385,80.7692308 Z" id="Shape" fill="#F7F7F7"></path>
                <path d="M110.897436,80.7692308 L39.1025641,80.7692308 C36.4102564,80.7692308 34.6153846,78.4615385 34.6153846,75 C34.6153846,71.5384615 36.4102564,69.2307692 39.1025641,69.2307692 L110.897436,69.2307692 C113.589744,69.2307692 115.384615,71.5384615 115.384615,75 C115.384615,78.4615385 113.589744,80.7692308 110.897436,80.7692308 L110.897436,80.7692308 Z" id="Shape" fill="#F7F7F7"></path>
            </g>
        </g>
    </g>
</svg>