<?xml version="1.0" encoding="UTF-8"?>
<svg width="192px" height="192px" viewBox="0 0 192 192" version="1.1" xmlns="http://www.w3.org/2000/svg" xmlns:xlink="http://www.w3.org/1999/xlink">
    <!-- Generator: Sketch 42 (36781) - http://www.bohemiancoding.com/sketch -->
    <title>有效期</title>
    <desc>Created with Sketch.</desc>
    <defs></defs>
    <g id="Page-1" stroke="none" stroke-width="1" fill="none" fill-rule="evenodd" opacity="0.3">
        <g id="有效期">
            <g id="cvc-icn" transform="translate(21.000000, 45.000000)">
                <path d="M137.827843,1.42108547e-14 L12.1721571,1.42108547e-14 C5.44717997,1.42108547e-14 0,5.44717997 0,12.1721571 L0,25.6052014 L0,42.3167976 L0,90.4336766 C0,97.1586537 5.44717997,102.605834 12.1721571,102.605834 L137.827843,102.605834 C144.55282,102.605834 150,97.1586537 150,90.4336766 L150,42.2998878 L150,25.5882915 L150,12.1552472 C149.98309,5.44717997 144.53591,1.42108547e-14 137.827843,1.42108547e-14 L137.827843,1.42108547e-14 Z" id="Shape-Copy-3" stroke="#000000" stroke-width="7"></path>
                <polygon id="*" fill="#000000" points="44.7713216 53.0558268 52.0914714 49.609375 49.9267578 45.6217448 43.2332357 50.406901 43.8883464 42.2322591 39.4734701 42.2322591 40.1000977 50.406901 33.4350586 45.6217448 31.241862 49.609375 38.5904948 53.0558268 31.241862 56.3883464 33.4350586 60.3190104 40.1000977 55.7617188 39.4734701 63.7369792 43.8883464 63.7369792 43.2617187 55.7902018 49.9267578 60.3190104 52.0914714 56.3883464"></polygon>
                <polygon id="*-copy" fill="#000000" points="78.1046549 53.0558268 85.4248047 49.609375 83.2600911 45.6217448 76.566569 50.406901 77.2216797 42.2322591 72.8068034 42.2322591 73.433431 50.406901 66.7683919 45.6217448 64.5751953 49.609375 71.9238281 53.0558268 64.5751953 56.3883464 66.7683919 60.3190104 73.433431 55.7617188 72.8068034 63.7369792 77.2216797 63.7369792 76.5950521 55.7902018 83.2600911 60.3190104 85.4248047 56.3883464"></polygon>
                <polygon id="*-copy-2" fill="#000000" points="111.437988 53.0558268 118.758138 49.609375 116.593424 45.6217448 109.899902 50.406901 110.555013 42.2322591 106.140137 42.2322591 106.766764 50.406901 100.101725 45.6217448 97.9085286 49.609375 105.257161 53.0558268 97.9085286 56.3883464 100.101725 60.3190104 106.766764 55.7617188 106.140137 63.7369792 110.555013 63.7369792 109.928385 55.7902018 116.593424 60.3190104 118.758138 56.3883464"></polygon>
            </g>
        </g>
    </g>
</svg>