<?xml version="1.0" encoding="UTF-8"?>
<svg width="192px" height="192px" viewBox="0 0 192 192" version="1.1" xmlns="http://www.w3.org/2000/svg" xmlns:xlink="http://www.w3.org/1999/xlink">
    <!-- Generator: Sketch 42 (36781) - http://www.bohemiancoding.com/sketch -->
    <title>相册图片</title>
    <desc>Created with Sketch.</desc>
    <defs></defs>
    <g id="Page-1" stroke="none" stroke-width="1" fill="none" fill-rule="evenodd">
        <g id="相册图片" stroke="#999999" fill="#999999">
            <path d="M21.129199,166.994832 L21.129199,166.994832 L21.129199,166.736434 C21.129199,166.348837 21,165.832041 21,165.444444 L21,130.560724 L21,26.2971576 C21,23.3255814 23.3255814,21 26.2971576,21 L165.702842,21 C168.674419,21 171,23.3255814 171,26.2971576 L171,130.819121 L171,165.702842 C171,168.674419 168.674419,171 165.702842,171 L25.9095607,171 C25.5219638,171 25.1343669,171 24.74677,170.870801 C24.74677,170.870801 24.6175711,170.741602 24.4883721,170.741602 C24.3591731,170.612403 24.3591731,170.612403 24.2299742,170.612403 C24.1007752,170.483204 23.8423773,170.483204 23.7131783,170.354005 C23.7131783,170.224806 23.5839793,170.224806 23.5839793,170.224806 L23.4547804,170.095607 C23.3255814,169.966408 23.1963824,169.966408 23.0671835,169.837209 C23.0671835,169.837209 23.0671835,169.70801 22.9379845,169.70801 C22.8087855,169.578811 22.8087855,169.578811 22.6795866,169.449612 L22.5503876,169.320413 C22.4211886,169.062016 22.1627907,168.932817 22.0335917,168.674419 L21.9043928,168.54522 C21.9043928,168.416021 21.7751938,168.416021 21.7751938,168.286822 C21.7751938,168.157623 21.6459948,168.157623 21.6459948,168.028424 C21.5167959,167.770026 21.3875969,167.382429 21.2583979,167.124031 C21.129199,167.124031 21.129199,167.124031 21.129199,166.994832 C21.129199,167.124031 21.129199,166.994832 21.129199,166.994832 Z M160.793282,160.276486 L160.793282,132.886305 L130.302326,103.816537 L43.997416,160.276486 L160.793282,160.276486 Z M111.05168,75.9095607 C106.342275,75.9095607 102.524548,72.0918338 102.524548,67.3824289 C102.524548,62.6730241 106.342275,58.8552972 111.05168,58.8552972 C115.761084,58.8552972 119.578811,62.6730241 119.578811,67.3824289 C119.578811,72.0918338 115.761084,75.9095607 111.05168,75.9095607 Z M31.5943152,31.5943152 L31.5943152,121 L79.5271318,90.7674419 C81.5943152,89.4754522 84.3074935,89.7338501 86.1162791,91.5426357 L103.299742,108.855297 L127.976744,92.5762274 C130.043928,91.2842377 132.757106,91.5426357 134.565891,93.2222222 L160.793282,118.286822 L160.793282,31.5943152 L31.5943152,31.5943152 Z M31.5943152,133.5323 L31.5943152,133.5323 L31.5943152,155.754522 L94.255814,114.79845 L81.5943152,102.007752 L31.5943152,133.5323 Z" id="gallery"></path>
        </g>
    </g>
</svg>