<?xml version="1.0" encoding="UTF-8"?>
<svg width="192px" height="192px" viewBox="0 0 192 192" version="1.1" xmlns="http://www.w3.org/2000/svg" xmlns:xlink="http://www.w3.org/1999/xlink">
    <!-- Generator: Sketch 42 (36781) - http://www.bohemiancoding.com/sketch -->
    <title>编辑</title>
    <desc>Created with Sketch.</desc>
    <defs></defs>
    <g id="Page-1" stroke="none" stroke-width="1" fill="none" fill-rule="evenodd">
        <g id="编辑" stroke="#979797" fill="#999999">
            <path d="M21,47.0992007 L118.810921,47.0992007 L112.290193,53.6199288 L27.520728,53.6199288 L27.520728,164.472306 L138.373105,164.472306 L138.373105,79.7028409 L144.893833,73.1821129 L144.893833,170.993034 L21,170.993034 L21,47.0992007 Z M142.268123,30.0619294 L148.823157,36.6168645 L86.5503369,98.8887477 L83.2728201,108.72115 L93.1053706,105.443683 L155.378191,43.1717996 L161.933224,49.7267347 L96.3828874,115.276085 L70.1627527,121.831021 L79.9953032,92.3338127 L142.268123,30.0619294 Z M145.54564,26.7844619 L154.316593,18.0136406 C154.903946,17.4262965 155.851552,17.4254131 156.435472,18.0093246 L173.98601,35.5595992 C174.566929,36.1405092 174.567998,37.0921507 173.981694,37.6784458 L165.210741,46.4492671 L145.54564,26.7844619 Z" id="Edit-Button"></path>
        </g>
    </g>
</svg>