<?xml version="1.0" encoding="UTF-8"?>
<svg width="192px" height="192px" viewBox="0 0 192 192" version="1.1" xmlns="http://www.w3.org/2000/svg" xmlns:xlink="http://www.w3.org/1999/xlink">
    <!-- Generator: Sketch 42 (36781) - http://www.bohemiancoding.com/sketch -->
    <title>菜单列表</title>
    <desc>Created with Sketch.</desc>
    <defs></defs>
    <g id="Page-1" stroke="none" stroke-width="1" fill="none" fill-rule="evenodd">
        <g id="菜单列表" fill="#8B8B8B">
            <g id="Navigation-Bar" transform="translate(16.000000, 39.000000)">
                <g id="icon-:-hamburger" transform="translate(0.000000, 0.500000)">
                    <path d="M141.666667,17.1428571 L8.33333333,17.1428571 C3.33333333,17.1428571 0,13.7142857 0,8.57142857 C0,3.42857143 3.33333333,0 8.33333333,0 L141.666667,0 C146.666667,0 150,3.42857143 150,8.57142857 C150,13.7142857 146.666667,17.1428571 141.666667,17.1428571 L141.666667,17.1428571 Z" id="Shape"></path>
                    <path d="M118.055556,68.5714286 L6.94444444,68.5714286 C2.77777778,68.5714286 0,65.1428571 0,60 C0,54.8571429 2.77777778,51.4285714 6.94444444,51.4285714 L118.055556,51.4285714 C122.222222,51.4285714 125,54.8571429 125,60 C125,65.1428571 122.222222,68.5714286 118.055556,68.5714286 L118.055556,68.5714286 Z" id="Shape"></path>
                    <path d="M141.666667,120 L8.33333333,120 C3.33333333,120 0,116.571429 0,111.428571 C0,106.285714 3.33333333,102.857143 8.33333333,102.857143 L141.666667,102.857143 C146.666667,102.857143 150,106.285714 150,111.428571 C150,116.571429 146.666667,120 141.666667,120 L141.666667,120 Z" id="Shape"></path>
                </g>
            </g>
        </g>
    </g>
</svg>