<?xml version="1.0" encoding="UTF-8"?>
<svg width="192px" height="192px" viewBox="0 0 192 192" version="1.1" xmlns="http://www.w3.org/2000/svg" xmlns:xlink="http://www.w3.org/1999/xlink">
    <!-- Generator: Sketch 42 (36781) - http://www.bohemiancoding.com/sketch -->
    <title>订单</title>
    <desc>Created with Sketch.</desc>
    <defs></defs>
    <g id="Page-1" stroke="none" stroke-width="1" fill="none" fill-rule="evenodd">
        <g id="订单" fill="#CCCCCC">
            <path d="M138.880079,133.749708 C136.07574,133.749708 133.352922,134.866553 131.380102,136.826329 C129.407282,138.784476 128.282285,141.505663 128.282285,144.274133 C128.282285,147.042603 129.407282,149.76216 131.380102,151.723567 C133.352922,153.681713 136.07574,154.798558 138.880079,154.798558 C141.668114,154.798558 144.390932,153.681713 146.363752,151.723567 C148.336573,149.76216 149.477873,147.042603 149.477873,144.274133 C149.477873,141.505663 148.336573,138.784476 146.363752,136.826329 C144.390932,134.866553 141.668114,133.749708 138.880079,133.749708 M80.3639514,133.749708 C77.5759164,133.749708 74.8367942,134.866553 72.863974,136.826329 C70.8911539,138.784476 69.7661573,141.505663 69.7661573,144.274133 C69.7661573,147.042603 70.8911539,149.76216 72.863974,151.723567 C74.8367942,153.681713 77.5759164,154.798558 80.3639514,154.798558 C83.1519865,154.798558 85.8748044,153.681713 87.8476245,151.723567 C89.8204446,149.76216 90.9617456,147.042603 90.9617456,144.274133 C90.9617456,141.505663 89.8204446,138.784476 87.8476245,136.826329 C85.8748044,134.866553 83.1519865,133.749708 80.3639514,133.749708 M170.699549,63.5254635 L153.273514,118.601384 C152.047431,122.467134 148.483311,125.043213 144.402345,125.043213 L77.0427658,125.043213 C73.178647,125.043213 69.4156149,122.649742 68.0672494,119.053013 L42.4059137,50.0434389 L27.5217195,50.0434389 C23.9200999,50.0434389 21,47.0988826 21,43.5217195 C21,39.9461868 23.9200999,37 27.5217195,37 L46.909161,37 C49.6189354,37 52.0678411,38.8652118 53.0281643,41.3825955 L79.6433014,111.999774 L141.655071,111.999774 L155.590355,67.9781675 L78.7302607,67.9781675 C75.1286411,67.9781675 72.2085412,65.0336111 72.2085412,61.456448 C72.2085412,57.8809153 75.1286411,54.9347285 78.7302607,54.9347285 L164.477828,54.9347285 C166.554996,54.9347285 168.50662,56.0385295 169.735965,57.701568 C170.965309,59.3646065 171.322373,61.5575346 170.699549,63.5254635" id="cart"></path>
        </g>
    </g>
</svg>