<?xml version="1.0" encoding="UTF-8"?>
<svg width="192px" height="192px" viewBox="0 0 192 192" version="1.1" xmlns="http://www.w3.org/2000/svg" xmlns:xlink="http://www.w3.org/1999/xlink">
    <!-- Generator: Sketch 42 (36781) - http://www.bohemiancoding.com/sketch -->
    <title>购物车</title>
    <desc>Created with Sketch.</desc>
    <defs></defs>
    <g id="Page-1" stroke="none" stroke-width="1" fill="none" fill-rule="evenodd">
        <g id="购物车">
            <path d="M136.880079,142.749708 C134.07574,142.749708 131.352922,143.866553 129.380102,145.826329 C127.407282,147.784476 126.282285,150.505663 126.282285,153.274133 C126.282285,156.042603 127.407282,158.76216 129.380102,160.723567 C131.352922,162.681713 134.07574,163.798558 136.880079,163.798558 C139.668114,163.798558 142.390932,162.681713 144.363752,160.723567 C146.336573,158.76216 147.477873,156.042603 147.477873,153.274133 C147.477873,150.505663 146.336573,147.784476 144.363752,145.826329 C142.390932,143.866553 139.668114,142.749708 136.880079,142.749708 M78.3639514,142.749708 C75.5759164,142.749708 72.8367942,143.866553 70.863974,145.826329 C68.8911539,147.784476 67.7661573,150.505663 67.7661573,153.274133 C67.7661573,156.042603 68.8911539,158.76216 70.863974,160.723567 C72.8367942,162.681713 75.5759164,163.798558 78.3639514,163.798558 C81.1519865,163.798558 83.8748044,162.681713 85.8476245,160.723567 C87.8204446,158.76216 88.9617456,156.042603 88.9617456,153.274133 C88.9617456,150.505663 87.8204446,147.784476 85.8476245,145.826329 C83.8748044,143.866553 81.1519865,142.749708 78.3639514,142.749708 M168.699549,72.5254635 L151.273514,127.601384 C150.047431,131.467134 146.483311,134.043213 142.402345,134.043213 L75.0427658,134.043213 C71.178647,134.043213 67.4156149,131.649742 66.0672494,128.053013 L40.4059137,59.0434389 L25.5217195,59.0434389 C21.9200999,59.0434389 19,56.0988826 19,52.5217195 C19,48.9461868 21.9200999,46 25.5217195,46 L44.909161,46 C47.6189354,46 50.0678411,47.8652118 51.0281643,50.3825955 L77.6433014,120.999774 L139.655071,120.999774 L153.590355,76.9781675 L76.7302607,76.9781675 C73.1286411,76.9781675 70.2085412,74.0336111 70.2085412,70.456448 C70.2085412,66.8809153 73.1286411,63.9347285 76.7302607,63.9347285 L162.477828,63.9347285 C164.554996,63.9347285 166.50662,65.0385295 167.735965,66.701568 C168.965309,68.3646065 169.322373,70.5575346 168.699549,72.5254635" id="cart" fill="#CCCCCC"></path>
            <circle id="Oval-3" stroke="#FF3B5E" fill="#FF3B5E" cx="149" cy="58" r="35"></circle>
        </g>
    </g>
</svg>